<svg width="48" height="48" viewBox="0 0 48 48" fill="none" xmlns="http://www.w3.org/2000/svg">
<g clip-path="url(#clip0_2052_45)">
<path d="M42 -0.75H6C2.27208 -0.75 -0.75 2.27208 -0.75 6V42C-0.75 45.7279 2.27208 48.75 6 48.75H42C45.7279 48.75 48.75 45.7279 48.75 42V6C48.75 2.27208 45.7279 -0.75 42 -0.75Z" fill="#EF4CD4"/>
<path d="M24 21.6562L35.25 39.0938H29.0625L24 32.3438L18.9375 39.0938H12.75L24 21.6562Z" fill="white"/>
<path opacity="0.8" d="M35.25 15.5625C36.9069 15.5625 38.25 14.2194 38.25 12.5625C38.25 10.9056 36.9069 9.5625 35.25 9.5625C33.5931 9.5625 32.25 10.9056 32.25 12.5625C32.25 14.2194 33.5931 15.5625 35.25 15.5625Z" fill="white"/>
</g>
<defs>
<clipPath id="clip0_2052_45">
<rect width="48" height="48" rx="6" fill="white"/>
</clipPath>
</defs>
</svg>
