<svg width="16" height="16" viewBox="0 0 16 16" fill="none" xmlns="http://www.w3.org/2000/svg">
<g clip-path="url(#clip0_2052_53)">
<path d="M14 -0.25H2C0.757359 -0.25 -0.25 0.757359 -0.25 2V14C-0.25 15.2426 0.757359 16.25 2 16.25H14C15.2426 16.25 16.25 15.2426 16.25 14V2C16.25 0.757359 15.2426 -0.25 14 -0.25Z" fill="#EF4CD4"/>
<path d="M8 7.21875L11.75 13.0312H9.6875L8 10.7812L6.3125 13.0312H4.25L8 7.21875Z" fill="white"/>
<path opacity="0.8" d="M11.75 5.1875C12.3023 5.1875 12.75 4.73978 12.75 4.1875C12.75 3.63522 12.3023 3.1875 11.75 3.1875C11.1977 3.1875 10.75 3.63522 10.75 4.1875C10.75 4.73978 11.1977 5.1875 11.75 5.1875Z" fill="white"/>
</g>
<defs>
<clipPath id="clip0_2052_53">
<rect width="16" height="16" rx="2" fill="white"/>
</clipPath>
</defs>
</svg>
