<svg width="32" height="32" viewBox="0 0 32 32" fill="none" xmlns="http://www.w3.org/2000/svg">
<g clip-path="url(#clip0_2052_49)">
<path d="M28 -0.5H4C1.51472 -0.5 -0.5 1.51472 -0.5 4V28C-0.5 30.4853 1.51472 32.5 4 32.5H28C30.4853 32.5 32.5 30.4853 32.5 28V4C32.5 1.51472 30.4853 -0.5 28 -0.5Z" fill="#EF4CD4"/>
<path d="M16 14.4375L23.5 26.0625H19.375L16 21.5625L12.625 26.0625H8.5L16 14.4375Z" fill="white"/>
<path opacity="0.8" d="M23.5 10.375C24.6046 10.375 25.5 9.47957 25.5 8.375C25.5 7.27043 24.6046 6.375 23.5 6.375C22.3954 6.375 21.5 7.27043 21.5 8.375C21.5 9.47957 22.3954 10.375 23.5 10.375Z" fill="white"/>
</g>
<defs>
<clipPath id="clip0_2052_49">
<rect width="32" height="32" rx="4" fill="white"/>
</clipPath>
</defs>
</svg>
